<svg width="568" height="388" viewBox="0 0 568 388" fill="none" xmlns="http://www.w3.org/2000/svg">
<circle cx="473" cy="194" r="95" fill="white"/>
<circle cx="95" cy="194" r="95" fill="white"/>
<path fill-rule="evenodd" clip-rule="evenodd" d="M134.379 321.135L129.838 357.154C150.671 376.307 178.47 388 209 388H359C390.085 388 418.339 375.877 439.292 356.102L433.959 321.247C380.547 303.548 342 253.042 342 193.5C342 135.07 379.121 85.3414 430.982 66.7783L439.205 31.8162C418.261 12.0891 390.042 0 359 0H209C177.605 0 149.097 12.3658 128.083 32.4925L136.067 66.4423C188.425 84.7354 226 134.713 226 193.5C226 252.917 187.616 303.335 134.379 321.135Z" fill="white"/>
<circle cx="424.6" cy="46.85" r="21" fill="white"/>
<circle cx="143" cy="47" r="21" fill="white"/>
<circle cx="425.5" cy="340.5" r="21" fill="white"/>
<circle cx="142.5" cy="340.5" r="21" fill="white"/>
</svg>
