<svg width="568" height="388" viewBox="0 0 568 388" fill="none" xmlns="http://www.w3.org/2000/svg">
<path fill-rule="evenodd" clip-rule="evenodd" d="M137.004 320.227C128.072 322.642 121.5 330.804 121.5 340.5C121.5 347.589 125.012 353.857 130.392 357.66C151.163 376.512 178.74 388 209 388H359C389.26 388 416.838 376.512 437.608 357.66C442.988 353.857 446.5 347.589 446.5 340.5C446.5 331.913 441.346 324.53 433.963 321.275L433.959 321.247L433.7 321.161C432.827 320.791 431.925 320.478 430.996 320.227C379.127 301.667 342 251.936 342 193.5C342 135.492 378.586 86.0609 429.86 67.1859C438.912 64.8512 445.6 56.6316 445.6 46.85C445.6 40.2606 442.565 34.3801 437.817 30.53C417.022 11.5649 389.362 0 359 0H209C179.101 0 151.821 11.2154 131.138 29.6688C125.62 33.4529 122 39.8037 122 47C122 57.4294 129.603 66.0831 139.569 67.721C190.092 86.9822 226 136.032 226 193.5C226 251.936 188.873 301.667 137.004 320.227ZM190 194C190 246.467 147.467 289 95 289C42.5329 289 0 246.467 0 194C0 141.533 42.5329 99 95 99C147.467 99 190 141.533 190 194ZM568 194C568 246.467 525.467 289 473 289C420.533 289 378 246.467 378 194C378 141.533 420.533 99 473 99C525.467 99 568 141.533 568 194Z" fill="url(#paint0_linear_22_2)"/>
<defs>
<linearGradient id="paint0_linear_22_2" x1="209.5" y1="-57.5" x2="432.5" y2="418" gradientUnits="userSpaceOnUse">
<stop stop-color="#FD8700"/>
<stop offset="1" stop-color="#FD4800"/>
</linearGradient>
</defs>
</svg>
