<svg width="653" height="440" viewBox="0 0 653 440" fill="none" xmlns="http://www.w3.org/2000/svg">
<circle cx="124.858" cy="220.372" r="111.858" stroke="#1E1E1E" stroke-width="26"/>
<circle cx="527.696" cy="220.372" r="111.858" stroke="#1E1E1E" stroke-width="26"/>
<path fill-rule="evenodd" clip-rule="evenodd" d="M396.649 26H256.649C202.364 26 156.227 60.8819 139.429 109.454C134.66 108.834 129.796 108.514 124.858 108.514C120.599 108.514 116.395 108.752 112.26 109.215C130.026 46.1923 187.943 0 256.649 0H396.649C465.387 0 523.326 46.2357 541.062 109.304C536.68 108.782 532.219 108.514 527.696 108.514C523.003 108.514 518.378 108.802 513.837 109.364C497.013 60.8386 450.899 26 396.649 26ZM112.478 331.552C130.497 394.182 188.222 440 256.649 440H396.649C465.107 440 522.854 394.14 540.844 331.465C536.531 331.97 532.144 332.23 527.696 332.23C522.917 332.23 518.208 331.93 513.587 331.349C496.561 379.502 450.633 414 396.649 414H256.649C202.63 414 156.678 379.458 139.677 331.257C134.829 331.899 129.882 332.23 124.858 332.23C120.674 332.23 116.543 332 112.478 331.552Z" fill="#1E1E1E"/>
</svg>
